# xmcd
#
# Track frame offsets:
#	150
#	14930
#	25470
#	36120
#	48037
#	60175
#	73495
#	86537
#	102450
#	112982
#
# Disc length: 1701 seconds
#
# Revision: 0
# Processed by: cddbd v1.4PL0 Copyright (c) Steve Scherf et al.
# Submitted via: dBpowerAMP V4.0
#
DISCID=8406a30a
DTITLE=George Jones and Tammy Wynette - Together Again
DYEAR=1900
DGENRE=Country
TTITLE0=He Stopped Loving Her Today
TTITLE1=Her Name Is.....
TTITLE2=Nothing Ever Hurt Me (Half As Bad)
TTITLE3=I Turn To You
TTITLE4=Till I Get It Right
TTITLE5=D-I-V-O-R-C-E
TTITLE6=Womanhood
TTITLE7=The Wonders You Perform
TTITLE8=They Call It Making Love
TTITLE9=Who's Gonna Fill Their Shoes
EXTD=
EXTT0=
EXTT1=
EXTT2=
EXTT3=
EXTT4=
EXTT5=
EXTT6=
EXTT7=
EXTT8=
EXTT9=
PLAYORDER=
